<svg xmlns="http://www.w3.org/2000/svg" width="64" height="64" viewBox="0 0 64 64">
  <!-- Background -->
  <rect width="64" height="64" fill="#8a2be2" rx="0" ry="0" />
  
  <!-- Pixel grid for 8x8 layout -->
  <g fill="#6a1cb2" opacity="0.3">
    <rect x="8" y="0" width="8" height="64" />
    <rect x="24" y="0" width="8" height="64" />
    <rect x="40" y="0" width="8" height="64" />
    <rect x="56" y="0" width="8" height="64" />
    <rect x="0" y="8" width="64" height="8" />
    <rect x="0" y="24" width="64" height="8" />
    <rect x="0" y="40" width="64" height="8" />
    <rect x="0" y="56" width="64" height="8" />
  </g>
  
  <!-- Bucket outline -->
  <g>
    <!-- Bucket body -->
    <rect x="16" y="24" width="32" height="24" fill="#9c4dff" />
    <rect x="16" y="24" width="32" height="4" fill="#b76eff" />
    <rect x="16" y="44" width="32" height="4" fill="#6a1cb2" />
    
    <!-- Bucket handle -->
    <rect x="16" y="20" width="4" height="4" fill="#b76eff" />
    <rect x="44" y="20" width="4" height="4" fill="#b76eff" />
    <rect x="20" y="16" width="24" height="4" fill="#b76eff" />
  </g>
  
  <!-- Coins in bucket -->
  <g>
    <!-- Gold coins -->
    <rect x="20" y="28" width="8" height="8" fill="#ffd700" rx="4" ry="4" />
    <rect x="20" y="28" width="8" height="2" fill="#ffb700" />
    
    <rect x="28" y="32" width="8" height="8" fill="#ffd700" rx="4" ry="4" />
    <rect x="28" y="32" width="8" height="2" fill="#ffb700" />
    
    <rect x="36" y="28" width="8" height="8" fill="#ffd700" rx="4" ry="4" />
    <rect x="36" y="28" width="8" height="2" fill="#ffb700" />
    
    <rect x="24" y="36" width="8" height="8" fill="#ffd700" rx="4" ry="4" />
    <rect x="24" y="36" width="8" height="2" fill="#ffb700" />
    
    <rect x="36" y="36" width="8" height="8" fill="#ffd700" rx="4" ry="4" />
    <rect x="36" y="36" width="8" height="2" fill="#ffb700" />
  </g>
  
  <!-- Dollar signs on coins (simplified for 8-bit) -->
  <rect x="23" y="31" width="2" height="2" fill="#ffffff" />
  <rect x="31" y="35" width="2" height="2" fill="#ffffff" />
  <rect x="39" y="31" width="2" height="2" fill="#ffffff" />
  <rect x="27" y="39" width="2" height="2" fill="#ffffff" />
  <rect x="39" y="39" width="2" height="2" fill="#ffffff" />
  
  <!-- 8-bit border -->
  <g fill="none" stroke="#ffffff" stroke-width="2">
    <rect x="4" y="4" width="56" height="56" />
  </g>
  
  <!-- Pixel corners for 8-bit feel -->
  <rect x="0" y="0" width="4" height="4" fill="#ffffff" />
  <rect x="60" y="0" width="4" height="4" fill="#ffffff" />
  <rect x="0" y="60" width="4" height="4" fill="#ffffff" />
  <rect x="60" y="60" width="4" height="4" fill="#ffffff" />
</svg>